<?xml version="1.0" encoding="utf-8"?>
<!-- Generator: Adobe Illustrator 22.0.0, SVG Export Plug-In . SVG Version: 6.00 Build 0)  -->
<svg version="1.1" id="Слой_1" xmlns="http://www.w3.org/2000/svg" xmlns:xlink="http://www.w3.org/1999/xlink" x="0px" y="0px"
	 viewBox="0 0 267.9 264.3" style="enable-background:new 0 0 267.9 264.3;" xml:space="preserve">
<style type="text/css">
	.st0{fill:#232342;}
	.st1{fill:#11CC77;}
</style>
<path class="st0" d="M98,46.7c16.9,0,35.1,9.2,38.3,31c-7.1,0-13.4,0-20.5,0c-2.9-8.3-9.1-12-17.8-12c-12.2,0-20.3,9.2-20.3,22.7
	c0,12,7.9,22.5,20.3,22.6c8.8,0,15.9-4.4,18.2-13.2c7,0,13.4,0,20.5,0c-3,23-21.3,32.1-38.6,32.1c-20.7,0.1-41.7-13.8-41.8-41.5
	C56.3,60.7,77.2,46.7,98,46.7z"/>
<path class="st0" d="M203.4,66.3c-12.1,0-18.2,0-30.1,0v11.5h27.7c0,6.2,0,12.3,0,18.5h-27.7c0,4.8,0,9.4,0,14.3c12,0,19,0,31.2,0
	c0,6.1,0,12.3,0,18.5c-19.1,0-33.1,0-51.9,0c0-27.2,0-54.5,0-81.5c18.9,0,31.8,0,50.9,0C203.4,53.7,203.4,60,203.4,66.3z"/>
<path class="st0" d="M124.4,138.8h7.4v81.6c-7.1,0-14.2,0-21.3,0v-39.9l-41.2,40.3h-7.6v-81.8c7.1,0,14.3,0,21.5,0v40L124.4,138.8z"
	/>
<path class="st1" d="M102.8,250c4.1-0.2,8-0.7,12-1.2c-0.3-13-7.7-19.9-20.2-19.9c-12.9,0-19.9,6.9-20.4,19.9c4,0.5,7.9,0.9,12,1.2
	c0.7-4.9,3.8-6.4,8.6-6.4C99.7,243.6,102.5,245.7,102.8,250z"/>
<path class="st0" d="M151.8,179.6c-6.6-3.4-9.8-9.4-9.8-16.6c0.1-14.2,8.7-25.7,25.4-25.7h38.2v81.5h-34.8
	c-14.1,0-25.4-10.9-25.4-25C145.4,188.8,147.8,182.9,151.8,179.6z M185.4,200.1v-13.2h-13.2c-8.3,0-8.3,13.2,0.1,13.2H185.4z
	 M185.4,169.6v-13.8h-16.6c-8.4,0-8.3,13.8,0.1,13.8H185.4z"/>
<path class="st0" d="M24,248.7V23.1h51.8v15.6H43.2v194.5h16.7v15.6H24z"/>
<polygon class="st0" points="244,22.8 244,248.7 130.8,248.7 130.8,233.1 224.7,233.1 224.7,38.3 192.2,38.3 192.2,22.8 "/>
</svg>
